<svg version="1.1" xmlns="http://www.w3.org/2000/svg" width="24" height="24" viewBox="0 0 54 64">
		<path d="M26.496 0h1.664c4.992 0.256 9.792 3.456 11.648 8.128 1.152 2.496 1.088 5.248 1.088 7.872 3.52 0 7.040 0 10.56 0 0.96 15.872 1.92 31.744 2.944 47.616v0.384h-54.4v-0.512c1.152-15.808 2.176-31.68 3.264-47.488 1.728 0 3.392 0 5.12 0 0 1.152 0 2.368 0 3.52 0.128 1.28-0.448 2.56-0.384 3.84-0.64 11.776-1.344 23.552-2.048 35.328 14.336 0 28.672 0 43.008 0-0.768-12.48-1.6-24.896-2.368-37.376-1.92 0-3.84 0-5.696 0 0 1.792 0 3.584 0 5.376-1.856 0-3.648 0-5.44 0 0-4.416 0-8.832 0-13.312 0-2.304-0.96-4.608-2.752-6.080-2.496-2.24-6.464-2.56-9.408-0.96-1.792 0.96-3.136 2.624-3.712 4.608-0.512 1.664-0.32 3.392-0.384 5.056 3.648 0 7.232 0 10.816 0 0 1.792 0 3.584 0 5.312-3.584 0-7.168 0-10.816 0 0 1.792 0 3.584 0 5.376-1.792 0-3.584 0-5.376 0 0-4.544-0.064-9.088 0-13.568 0-3.456 1.408-6.784 3.84-9.216 2.304-2.304 5.568-3.648 8.832-3.904z"></path>
		</svg>